<svg version="1.0" xmlns="http://www.w3.org/2000/svg" width="200" height="300" color="#394042" viewBox="0 0 980 864"><path d="M351.7 2.5c-3.7.8-11.4 2.6-17 4C276.6 21.3 219.8 49.6 172 87.6c-17.3 13.8-50.5 46.9-64.4 64.4-19.7 24.7-36.2 51-51.3 81.5C23.9 299.3 5.7 376 1 466c-.6 11.5-1 89.5-1 189.5 0 187.4-.4 175.3 6.2 187.7 4 7.6 12.2 15.1 19.4 17.7l5.5 2.1 165.7-.2 165.7-.3 4.6-2.1c5.5-2.6 12.3-8.5 15.5-13.5 5.7-9.1 5.4.6 5.2-183l-.3-168.4-3.3-6.7c-3.9-8-10.1-13.8-18.1-17l-5.6-2.3-81.8-.3-81.9-.2.5-52.8c.5-55.1.8-60 5.8-86.7 17.6-94.4 69.8-167.6 146-204.8l14.8-7.2.1-58.3V1l-2.7.1c-1.6 0-5.9.7-9.6 1.4zM933 3.5c-90.9 19.8-176.6 72-235.6 143.5-57.1 69.1-93 158-105.8 262-5.2 42.1-5.1 37.3-5.1 233v183.5l4.5 9c5.2 10.6 14.5 20.6 23 25.1l5.5 2.9h335l5.7-2.8c7.1-3.5 13.9-10.9 17-18.5l2.3-5.7v-169c0-160.4-.1-169.3-1.8-174.2-3.8-10.7-12.7-18.8-24.2-21.8-5.1-1.3-17.1-1.5-88.2-1.5H783v-48.3c0-50.5.5-60.6 4.6-84.5 11.1-66.4 38.9-123 80.6-164.3 19.3-19.1 40-33.8 65.6-46.7l15.2-7.6V1l-2.7.1c-1.6 0-7.5 1.1-13.3 2.4z"/></svg>